<svg version="1.1" xmlns="http://www.w3.org/2000/svg" width="536" height="518">
    <path
        d="M0 0 C3.25555846 0.01077189 6.5105709 0.00001592 9.76611328 -0.01269531 C20.18009269 -0.02083996 30.28434434 0.01784224 40.49658203 2.26074219 C41.4554834 2.46860352 42.41438477 2.67646484 43.40234375 2.890625 C49.47919761 4.28317363 55.5046696 5.88970426 61.53076172 7.48583984 C64.17178538 8.17588011 66.81906652 8.82261524 69.47314453 9.45996094 C80.16457085 12.18137478 89.79223432 16.59778206 99.55908203 21.63574219 C100.17246429 21.95026337 100.78584656 22.26478455 101.41781616 22.58883667 C109.62630945 26.8301327 117.17047909 31.62265697 124.49658203 37.26074219 C125.30514648 37.86909912 126.11371094 38.47745605 126.94677734 39.10424805 C132.76558468 43.49525511 138.18704675 48.27007564 143.49658203 53.26074219 C144.03476562 53.76492676 144.57294922 54.26911133 145.12744141 54.78857422 C163.88212483 72.49956481 177.79543813 93.9413186 186.49658203 118.26074219 C186.7630957 119.00259766 187.02960938 119.74445313 187.30419922 120.50878906 C193.39103353 137.79275524 201.18966522 161.08515761 195.54345703 179.34277344 C194.35651507 181.72792579 193.46950508 183.47293291 191.49658203 185.26074219 C186.94511927 186.56705643 182.3418524 186.36212384 177.65209961 186.29833984 C176.74749434 186.29029611 175.84288906 186.28225237 174.91087151 186.27396488 C172.90315611 186.25546207 170.89546197 186.23454269 168.88779259 186.21158409 C165.51586867 186.17338588 162.14393594 186.14219914 158.77192688 186.11250305 C150.26734031 186.03636056 141.7628541 185.9505623 133.25835705 185.86514521 C122.09173973 185.75324972 110.92506979 185.64931012 99.75830078 185.55371094 C98.53235514 185.54309328 98.53235514 185.54309328 97.28164291 185.53226113 C67.0223156 185.27224752 36.76433587 185.23302015 6.50404217 185.24566591 C-3.80667731 185.24992416 -14.11736955 185.24665905 -24.42808533 185.23712158 C-25.11147608 185.2365073 -25.79486683 185.23589302 -26.49896639 185.23526013 C-32.73212558 185.22963052 -38.96528427 185.22363853 -45.19844186 185.21643925 C-61.20383267 185.19803616 -77.20887384 185.19874321 -93.21422825 185.24033184 C-104.57077793 185.26930959 -115.92697321 185.26868934 -127.28355378 185.24121088 C-133.54669233 185.22711317 -139.80910416 185.2269389 -146.07217979 185.2613163 C-151.87758047 185.29295527 -157.68175123 185.2878463 -163.48712695 185.2537353 C-165.60499353 185.24789737 -167.72294882 185.25574394 -169.84070337 185.27829671 C-172.72293025 185.30702135 -175.60079063 185.28671378 -178.48287964 185.25401306 C-179.31695616 185.27410708 -180.15103269 185.2942011 -181.01038426 185.31490403 C-184.61095538 185.22741861 -186.67352794 185.03342911 -189.36920857 182.52355778 C-192.54885711 178.43734083 -194.28278895 175.47008689 -194.00732422 170.13964844 C-193.92442139 168.46153076 -193.92442139 168.46153076 -193.83984375 166.74951172 C-190.64921082 133.6623241 -180.14635568 100.07294206 -158.50341797 74.26074219 C-158.00277832 73.65697754 -157.50213867 73.05321289 -156.98632812 72.43115234 C-153.99248847 68.83647939 -150.94348912 65.29564616 -147.84765625 61.78857422 C-146.63713221 60.41271889 -145.44230866 59.02308783 -144.24951172 57.63183594 C-139.99897691 52.71585536 -135.51631577 48.3917413 -130.50341797 44.26074219 C-129.76607422 43.63554688 -129.02873047 43.01035156 -128.26904297 42.36621094 C-121.96742606 37.14575379 -115.29499181 32.64929931 -108.32470703 28.38867188 C-106.61185696 27.32789877 -104.92751721 26.22147909 -103.24560547 25.11230469 C-73.07055145 5.98641606 -34.99667785 -0.13771963 0 0 Z M-40.50341797 24.26074219 C-41.50050781 24.49680176 -42.49759766 24.73286133 -43.52490234 24.97607422 C-73.68228303 32.22562435 -103.03258507 46.34062806 -124.50341797 69.26074219 C-126.91053408 71.69534576 -129.33235033 74.10002486 -131.82763672 76.44433594 C-145.67354948 89.64944613 -155.50054338 105.97429807 -161.69091797 124.01074219 C-162.11872559 125.23559326 -162.5465332 126.46044434 -162.98730469 127.72241211 C-168.95948786 144.1000476 -168.95948786 144.1000476 -170.50341797 161.26074219 C-168.68403994 163.50098202 -168.68403994 163.50098202 -166.06966966 163.51028985 C-165.03509412 163.51007248 -164.00051857 163.50985511 -162.93459225 163.50963116 C-161.74338896 163.51422995 -160.55218567 163.51882875 -159.32488531 163.5235669 C-157.99124263 163.51855112 -156.65760065 163.51334885 -155.32395935 163.50798035 C-153.91638779 163.50956727 -152.50881699 163.51202969 -151.10124832 163.51529676 C-147.21972417 163.52173514 -143.33830366 163.515623 -139.45678627 163.50753248 C-135.27611899 163.50097437 -131.09546366 163.5058998 -126.91479492 163.50941467 C-118.71977071 163.51446531 -110.52478673 163.50880433 -102.32976752 163.49956437 C-92.79612889 163.48919992 -83.26249906 163.48925004 -73.72885586 163.48973695 C-56.72474629 163.49023799 -39.72065552 163.48106451 -22.71655273 163.46655273 C-6.19766904 163.45246226 10.32119811 163.44538202 26.84008789 163.44604492 C27.85756253 163.44608488 28.87503717 163.44612483 29.92334438 163.446166 C31.44685755 163.44622653 31.44685755 163.44622653 33.00114876 163.44628829 C51.78061915 163.44697731 70.56008247 163.44109307 89.33955057 163.43213507 C95.99309154 163.42911277 102.64663122 163.42805481 109.30017281 163.42760277 C117.4021228 163.42692215 125.50406091 163.42247869 133.60600585 163.41326996 C137.74376726 163.40863824 141.8815134 163.4056115 146.01927757 163.40686417 C149.80091131 163.40795355 153.58251121 163.40447574 157.36413788 163.39721564 C158.73824442 163.39539183 160.11235442 163.3952821 161.48646111 163.39698293 C163.34217383 163.39902695 165.19789043 163.39441084 167.05359745 163.38937664 C168.08801065 163.38867222 169.12242384 163.38796779 170.18818289 163.38724202 C172.45947555 163.52030072 172.45947555 163.52030072 173.49658203 162.26074219 C174.23881467 128.43614046 154.67660263 97.4280453 132.64501953 73.46386719 C130.04693829 70.79965297 127.33927208 68.34235583 124.48876953 65.95214844 C123.16887159 64.83152921 121.88089682 63.67210591 120.62939453 62.47558594 C113.05925741 55.30310193 104.26739171 49.83186673 95.49658203 44.26074219 C94.8865332 43.86822266 94.27648437 43.47570312 93.64794922 43.07128906 C79.70686525 34.19602937 64.11506379 28.95036399 48.18408203 24.88574219 C47.25547363 24.64710449 46.32686523 24.4084668 45.37011719 24.16259766 C30.98714036 20.69292088 16.66235522 19.84746196 1.93408203 19.88574219 C1.1030899 19.88661835 0.27209778 19.88749451 -0.58407593 19.88839722 C-14.25526622 19.93573638 -27.19535552 20.94799541 -40.50341797 24.26074219 Z "
        fill="#9BD21E" transform="translate(262.50341796875,36.7392578125)" />
    <path
        d="M0 0 C1.94379831 -0.00596161 1.94379831 -0.00596161 3.92686528 -0.01204365 C7.48503491 -0.02252799 11.04294956 -0.01456916 14.60110772 -0.00329316 C18.45315777 0.00561211 22.30517671 -0.00291262 26.15722656 -0.00915527 C33.68668705 -0.01860736 41.21605119 -0.01207578 48.74550448 0.00010767 C57.52084547 0.01377495 66.29616391 0.01208576 75.07151284 0.00997434 C90.72935082 0.00678994 106.38714319 0.0184224 122.04496765 0.03804016 C137.22825 0.05705827 152.41147894 0.06412277 167.59477234 0.05854797 C184.14836829 0.05248799 200.70194082 0.05267003 217.25553483 0.06403381 C219.02089353 0.06524105 220.78625224 0.06644704 222.55161095 0.06765175 C223.85435841 0.06855706 223.85435841 0.06855706 225.183424 0.06948065 C231.29679823 0.07335609 237.41016372 0.07296769 243.52353859 0.0710659 C250.97213129 0.06894229 258.42067728 0.07418109 265.86925683 0.08867946 C269.66773382 0.09591406 273.46614283 0.10000837 277.26462555 0.0954361 C281.38408491 0.09059807 285.50335872 0.10129067 289.62280273 0.11352539 C291.41885679 0.10785641 291.41885679 0.10785641 293.25119478 0.10207289 C306.02593978 0.16927519 318.01552749 3.3591104 327.49394226 12.3742218 C338.54211889 25.37077427 340.25409854 41.79791065 339.49394226 58.3742218 C339.46429382 59.34875305 339.43464539 60.3232843 339.40409851 61.3273468 C338.74811526 73.80702809 334.47105195 84.71083107 325.32206726 93.44844055 C317.45318771 99.91991563 310.09244363 101.8178927 300.10894775 102.05363464 C299.10822756 102.08673859 298.10750737 102.11984253 297.07646233 102.15394962 C285.27139302 102.50797883 273.46309157 102.51457649 261.65385437 102.50361633 C259.15370153 102.50497561 256.65354888 102.50675847 254.15339661 102.50892639 C248.12189779 102.51297675 242.09041633 102.51243297 236.05891823 102.50951375 C231.13375576 102.50723157 226.20859676 102.50695922 221.28343391 102.50803757 C220.22147627 102.50826742 220.22147627 102.50826742 219.13806494 102.50850191 C217.69838686 102.50882174 216.25870879 102.50914595 214.81903071 102.5094745 C201.3743957 102.51231345 187.92976754 102.50906979 174.48513366 102.50367413 C163.06073892 102.49922997 151.63635438 102.4999653 140.21195984 102.5045929 C126.84270373 102.51000601 113.47345366 102.51201568 100.10419661 102.50898063 C98.66353548 102.50866221 97.22287434 102.50834784 95.78221321 102.50803757 C95.07403791 102.50788329 94.3658626 102.50772902 93.63622744 102.50757007 C88.75436998 102.50672316 83.87251656 102.50815957 78.99065971 102.51051712 C63.80039885 102.5168933 48.61073859 102.49219025 33.420681 102.4083786 C28.8374784 102.38334856 24.25447568 102.36988963 19.67120743 102.36643219 C14.33020064 102.36077631 8.99019809 102.32526456 3.64951813 102.26660132 C1.72482022 102.24987006 -0.19999333 102.24278561 -2.12475979 102.24679399 C-14.51161798 102.26386017 -28.56422612 101.80701482 -38.17836666 92.89787102 C-40.1982438 90.49364406 -41.85938074 88.04484769 -43.50605774 85.3742218 C-43.99332336 84.72582336 -44.48058899 84.07742493 -44.98262024 83.40937805 C-55.27602324 69.17318033 -52.85112407 45.89599834 -50.26387024 29.47969055 C-49.13242659 24.84310445 -47.27533182 21.22996624 -44.50605774 17.3742218 C-43.84605774 16.3635968 -43.18605774 15.3529718 -42.50605774 14.3117218 C-31.51190859 2.01201744 -15.56283434 -0.09674865 0 0 Z M-23.96699524 26.5304718 C-31.92824033 36.06780095 -31.42985415 49.67196159 -30.50605774 61.3742218 C-29.0693898 68.54114243 -25.79593336 75.24225291 -20.50605774 80.3742218 C-17.59223259 81.92937067 -17.59223259 81.92937067 -14.50605774 82.3742218 C-13.67082046 82.54820433 -12.83558317 82.72218685 -11.97503567 82.90144157 C-7.30352114 83.53811317 -2.71173135 83.51186567 1.99758911 83.50120544 C3.055779 83.50276543 4.11396888 83.50432543 5.20422512 83.50593269 C8.75190215 83.50992223 12.2995364 83.50676053 15.84721375 83.50361633 C18.392497 83.50497161 20.93778006 83.50675226 23.48306274 83.50892639 C29.6903498 83.51301971 35.89762107 83.51240919 42.10490834 83.50951375 C47.17444289 83.50724839 52.24397407 83.50695213 57.31350899 83.50803757 C58.03737216 83.5081908 58.76123533 83.50834403 59.50703375 83.50850191 C60.97843718 83.5088217 62.44984061 83.50914591 63.92124403 83.5094745 C77.73924137 83.51232917 91.5572321 83.50904678 105.37522835 83.50367413 C117.12696124 83.49924484 128.87868419 83.49994962 140.63041687 83.5045929 C154.33795922 83.51000658 168.04549567 83.51201399 181.75303894 83.50898063 C183.23133568 83.50866218 184.70963242 83.50834781 186.18792915 83.50803757 C186.91479909 83.50788329 187.64166902 83.50772902 188.39056532 83.50757007 C193.40901361 83.50672208 198.42745799 83.50815784 203.44590569 83.51051712 C221.46221986 83.51801128 239.4779049 83.48322045 257.49394226 83.3742218 C258.67923224 83.36778247 259.86452222 83.36134314 261.08573008 83.35470867 C267.86920117 83.31571624 274.65174669 83.25423516 281.4346391 83.15673804 C283.47042646 83.1298874 285.50630999 83.10943384 287.54222953 83.09591508 C290.304258 83.0757676 293.06476679 83.03085906 295.82635498 82.97892761 C296.6245294 82.97811589 297.42270381 82.97730417 298.24506533 82.97646785 C303.4166156 82.84187995 306.36430067 81.74651112 310.49394226 78.3742218 C311.93173848 76.58995758 311.93173848 76.58995758 312.74394226 74.6242218 C313.03784851 74.01062805 313.33175476 73.3970343 313.63456726 72.7648468 C316.34197809 65.23332212 316.85905196 58.39347115 316.86894226 50.4367218 C316.89343445 49.40353821 316.91792664 48.37035461 316.94316101 47.30586243 C316.97937606 37.7752698 314.28899992 31.15225521 308.34941101 23.78437805 C302.30775998 19.19272327 294.10993002 20.09314321 286.93719482 20.12025452 C285.03783831 20.11557454 285.03783831 20.11557454 283.10011095 20.11080003 C279.59684714 20.10246851 276.09369262 20.10656981 272.59042847 20.11277246 C268.80780628 20.11730273 265.02520271 20.11031031 261.24258423 20.10481262 C253.83665075 20.09592286 246.43075784 20.09783885 239.02482278 20.1036379 C233.00484101 20.10815636 226.9848706 20.1087665 220.96488762 20.10659027 C220.10778385 20.1062838 219.25068008 20.10597734 218.36760346 20.10566159 C216.62635005 20.10502213 214.88509663 20.1043737 213.14384323 20.1037164 C196.81855986 20.09801424 180.49329897 20.10456904 164.16801929 20.11531714 C150.16507676 20.12425094 136.16216739 20.12270179 122.15922546 20.11347961 C105.89353608 20.10277222 89.62786639 20.09856524 73.36217397 20.10470414 C71.62705354 20.10534123 69.89193311 20.10596997 68.15681267 20.10659027 C67.3031291 20.10689882 66.44944552 20.10720737 65.56989275 20.10752527 C59.55877768 20.10925092 53.54767511 20.10633988 47.53656197 20.10163116 C40.20860061 20.09601706 32.88068208 20.09754987 25.55272562 20.10819265 C21.81504511 20.11344246 18.07743597 20.11551791 14.33975601 20.10889435 C10.28566653 20.10181885 6.23175669 20.11027764 2.17767334 20.12025452 C0.99955694 20.11579307 -0.17855946 20.11133163 -1.39237636 20.10673499 C-9.94546415 20.1476054 -17.45323107 20.46285586 -23.96699524 26.5304718 Z "
        fill="#9BD21E" transform="translate(120.50605773925781,360.6257781982422)" />
    <path
        d="M0 0 C1.48826294 0.69452271 1.48826294 0.69452271 3.0065918 1.40307617 C4.045979 1.89525635 5.08536621 2.38743652 6.15625 2.89453125 C8.31876973 3.89505164 10.48152887 4.89505472 12.64453125 5.89453125 C16.07359569 7.49068227 19.48944873 9.10694717 22.88671875 10.76953125 C24.59794922 11.57390625 24.59794922 11.57390625 26.34375 12.39453125 C27.74173828 13.08095703 27.74173828 13.08095703 29.16796875 13.78125 C43.49443198 17.58345805 54.23216579 11.59208158 67.03125 5.64453125 C69.86259121 4.33833338 72.69649557 3.03986462 75.54067993 1.76185608 C77.29922735 0.97096367 79.05058078 0.1638101 80.7930603 -0.66188049 C88.03171774 -3.92994573 92.90029844 -3.14045887 100.34838867 -0.37768555 C101.00685791 -0.122854 101.66532715 0.13197754 102.34375 0.39453125 C103.04798096 0.66289795 103.75221191 0.93126465 104.4777832 1.20776367 C109.54782395 3.17986252 114.3615868 5.47930511 119.1796875 8.0078125 C122.03785939 9.40478415 124.8830183 10.66071435 127.8203125 11.875 C128.74884033 12.26002686 129.67736816 12.64505371 130.6340332 13.04174805 C132.47960272 13.80041684 134.32955002 14.54854977 136.18432617 15.28442383 C141.73490422 17.57312443 146.65224608 20.1163486 150.65625 24.70703125 C151.99606976 29.73135534 149.50084873 33.50263173 147.140625 37.8515625 C145.33455437 40.10915078 144.46874375 40.28942921 141.65625 40.70703125 C138.7147298 39.90014546 135.94865984 39.00591197 133.09375 37.95703125 C132.24127686 37.6513623 131.38880371 37.34569336 130.51049805 37.03076172 C96.62960681 24.68038806 96.62960681 24.68038806 93.65625 21.70703125 C85.5532855 20.93174761 79.7503062 23.26806794 72.40625 26.51953125 C71.3440625 26.97134766 70.281875 27.42316406 69.1875 27.88867188 C64.47415908 29.91671115 60.02564883 32.00631244 55.65625 34.70703125 C48.43969352 38.6557131 40.88064235 40.96947862 32.67578125 38.98681641 C29.63173089 37.9205023 26.68185237 36.73052659 23.71875 35.45703125 C22.70490234 35.04839844 21.69105469 34.63976562 20.64648438 34.21875 C16.22076195 32.39931884 12.43600096 30.66219031 8.65625 27.70703125 C6.66742529 26.5857597 4.64227241 25.52761336 2.59375 24.51953125 C1.55089844 23.98972656 0.50804687 23.45992188 -0.56640625 22.9140625 C-9.42011262 20.08490503 -16.98038674 21.72157514 -25.25390625 25.42578125 C-26.14685898 25.80311401 -27.03981171 26.18044678 -27.95982361 26.56921387 C-30.78361348 27.7633891 -33.59570955 28.98202928 -36.40625 30.20703125 C-40.11778017 31.82168233 -43.83870531 33.41138663 -47.56640625 34.98828125 C-48.81527367 35.54606262 -48.81527367 35.54606262 -50.08937073 36.1151123 C-57.92204199 39.4283522 -65.15528107 39.97019722 -73.17750549 36.92874146 C-73.80084274 36.67253021 -74.42417999 36.41631897 -75.06640625 36.15234375 C-75.73796249 35.89073456 -76.40951874 35.62912537 -77.10142517 35.35958862 C-78.50004699 34.81100266 -79.89554609 34.25439 -81.2878418 33.68994141 C-83.42642574 32.82386051 -85.57410789 31.98443184 -87.72460938 31.1484375 C-89.08913627 30.60957618 -90.45309165 30.06926485 -91.81640625 29.52734375 C-92.45796158 29.27518097 -93.09951691 29.02301819 -93.76051331 28.76321411 C-98.22713527 26.94026071 -98.22713527 26.94026071 -99.34375 24.70703125 C-101.63329161 23.52331463 -101.63329161 23.52331463 -104.40625 22.51953125 C-105.78490234 21.97232422 -105.78490234 21.97232422 -107.19140625 21.4140625 C-114.86060761 19.69395662 -120.8142885 22.50709689 -127.59375 25.76953125 C-129.35676326 26.58486912 -131.1211289 27.39728803 -132.88671875 28.20703125 C-134.23515869 28.82771484 -134.23515869 28.82771484 -135.61083984 29.4609375 C-140.01401749 31.46860399 -144.44233291 33.40104362 -148.90625 35.26953125 C-149.68967773 35.6157251 -150.47310547 35.96191895 -151.28027344 36.31860352 C-160.54296625 40.1351218 -167.95735814 39.62880805 -177.19921875 35.86328125 C-179.99267805 34.67956641 -182.76217202 33.44647759 -185.53125 32.20703125 C-186.97381386 31.57889903 -188.41716948 30.95258188 -189.86132812 30.328125 C-193.36494376 28.80852285 -196.85694475 27.26479599 -200.34375 25.70703125 C-200.34375 25.04703125 -200.34375 24.38703125 -200.34375 23.70703125 C-210.34504925 20.15101374 -218.35122874 21.1383607 -227.91015625 25.61328125 C-230.34375 26.70703125 -230.34375 26.70703125 -232.34375 26.70703125 C-232.34375 27.36703125 -232.34375 28.02703125 -232.34375 28.70703125 C-236.43563192 30.40502 -240.54385986 32.05940337 -244.65625 33.70703125 C-245.80416016 34.18398438 -246.95207031 34.6609375 -248.13476562 35.15234375 C-255.11730055 37.92162106 -261.77130221 40.16067078 -269.34375 38.70703125 C-272.58929639 35.68791833 -273.55773819 33.02193934 -273.90625 28.70703125 C-274.0382183 24.98086747 -272.19851395 22.92747511 -269.8396759 20.17141724 C-267.4625226 17.84438354 -264.83003582 16.73713625 -261.78515625 15.453125 C-261.15955307 15.18492447 -260.53394989 14.91672394 -259.88938904 14.64039612 C-257.90111802 13.79305602 -255.9040858 12.96902337 -253.90625 12.14453125 C-252.60161499 11.58929494 -251.29757291 11.03266327 -249.99414062 10.47460938 C-242.53203609 7.30596245 -235.00588777 4.43244776 -227.34741211 1.76977539 C-225.46717118 1.1045158 -223.60097099 0.39634053 -221.76098633 -0.37329102 C-213.49226949 -3.51926176 -206.8203692 -2.29016589 -198.8918457 1.17626953 C-197.80347412 1.6814209 -196.71510254 2.18657227 -195.59375 2.70703125 C-194.45574951 3.21089355 -193.31774902 3.71475586 -192.14526367 4.23388672 C-187.25461646 6.41207121 -182.40226773 8.66788879 -177.56640625 10.96484375 C-176.55175293 11.44630859 -176.55175293 11.44630859 -175.51660156 11.9375 C-173.80076616 12.76254212 -172.09701156 13.61258415 -170.39453125 14.46484375 C-165.24679223 16.56085016 -161.22079124 17.28648511 -155.97241211 15.29174805 C-154.34788918 14.59700836 -152.73103483 13.88414263 -151.12109375 13.15625 C-149.82553307 12.59524345 -149.82553307 12.59524345 -148.50379944 12.02290344 C-145.75574661 10.82919874 -143.01852101 9.61272887 -140.28125 8.39453125 C-137.53841552 7.19211694 -134.79356258 5.99443888 -132.04798889 4.79829407 C-130.3441206 4.05399469 -128.64221671 3.305177 -126.94261169 2.55119324 C-112.26335478 -3.93041957 -112.26335478 -3.93041957 -104.24121094 -0.85595703 C-102.68251581 -0.2019648 -101.12834853 0.46289136 -99.578125 1.13671875 C-98.74468567 1.48711212 -97.91124634 1.83750549 -97.05255127 2.19851685 C-94.3952283 3.3162994 -91.74399898 4.44758776 -89.09375 5.58203125 C-86.45761952 6.70890089 -83.82029104 7.83225375 -81.17779541 8.94412231 C-79.537768 9.63421684 -77.9012012 10.33262034 -76.26898193 11.04098511 C-69.77469682 13.77449328 -63.03776285 16.42198431 -55.95556641 15.05126953 C-54.46549072 14.42067627 -54.46549072 14.42067627 -52.9453125 13.77734375 C-51.25075928 13.08366699 -51.25075928 13.08366699 -49.52197266 12.37597656 C-48.34940918 11.86647461 -47.1768457 11.35697266 -45.96875 10.83203125 C-44.73468109 10.31988427 -43.49947502 9.81046938 -42.26318359 9.30371094 C-38.6111797 7.79987091 -34.97701826 6.25562081 -31.34375 4.70703125 C-28.4120358 3.46759997 -25.4786266 2.23384368 -22.53662109 1.01904297 C-20.87160209 0.33042986 -19.21254108 -0.37284208 -17.56103516 -1.09326172 C-16.82159668 -1.40150879 -16.0821582 -1.70975586 -15.3203125 -2.02734375 C-14.69205566 -2.29772461 -14.06379883 -2.56810547 -13.41650391 -2.84667969 C-8.60363335 -3.88294911 -4.30210078 -2.02924109 0 0 Z "
        fill="#9AD21D" transform="translate(334.34375,296.29296875)" />
    <path
        d="M0 0 C0.68513672 0.26272705 1.37027344 0.5254541 2.07617188 0.79614258 C9.11246441 3.57054586 15.91623216 6.83962913 22.70288086 10.17114258 C34.94174043 16.56283193 34.94174043 16.56283193 48.30566406 15.97705078 C50.80725638 14.97796764 53.24381609 13.88322536 55.6875 12.75 C57.54129433 11.93144792 59.3954742 11.1137685 61.25 10.296875 C64.17265413 8.98978814 67.09104483 7.67447855 70.00390625 6.34570312 C72.88777335 5.03817084 75.78581293 3.76739493 78.6875 2.5 C79.56229004 2.08951416 80.43708008 1.67902832 81.33837891 1.25610352 C89.66230368 -2.3362026 96.24971907 -0.90293622 104.50390625 2.30859375 C105.88253 2.90276117 107.25638005 3.50813876 108.625 4.125 C113.00323536 6.06208796 117.30252014 7.81147837 121.91015625 9.1328125 C127.43306633 10.73134006 132.65839761 12.85982641 137.9375 15.125 C138.86046875 15.50720703 139.7834375 15.88941406 140.734375 16.28320312 C149.23675291 19.9121166 149.23675291 19.9121166 152.0625 23.6875 C154.11508242 30.10182006 151.9139727 34.91824129 149.0625 40.6875 C148.0625 41.6875 148.0625 41.6875 145.5625 42 C141.65430456 41.65105398 139.17124061 40.49851441 135.67578125 38.82421875 C132.72827829 37.54212105 129.77350414 36.64688139 126.6875 35.75 C120.52709218 33.92872513 114.8269639 31.50619577 109.0625 28.6875 C109.0625 28.0275 109.0625 27.3675 109.0625 26.6875 C108.381875 26.584375 107.70125 26.48125 107 26.375 C104.0625 25.6875 104.0625 25.6875 100.75 24.1875 C95.23103445 21.94249706 91.64135329 20.8108794 85.93969727 22.74902344 C82.24695456 24.35242047 78.61938617 26.05159137 75 27.8125 C44.83465384 42.26201441 44.83465384 42.26201441 31.08740234 37.83740234 C23.58753529 34.98636329 16.3745435 31.39080104 9.14038086 27.93139648 C6.97001185 26.89692153 4.79236545 25.87924097 2.61328125 24.86328125 C1.95894608 24.54458572 1.3046109 24.2258902 0.63044739 23.89753723 C-4.74555038 21.40913401 -9.10543194 20.75938826 -14.77661133 22.61791992 C-15.6817749 23.04693604 -16.58693848 23.47595215 -17.51953125 23.91796875 C-18.53466797 24.39169922 -19.54980469 24.86542969 -20.59570312 25.35351562 C-21.63662109 25.85560547 -22.67753906 26.35769531 -23.75 26.875 C-24.77931641 27.35775391 -25.80863281 27.84050781 -26.86914062 28.33789062 C-31.71720501 30.62239914 -36.51455761 32.98060702 -41.27734375 35.4375 C-45.02318027 37.31998257 -48.5659806 38.62340819 -52.6875 39.5 C-54.25757813 39.84998047 -54.25757813 39.84998047 -55.859375 40.20703125 C-62.28447858 41.20993447 -66.5792176 40.35370174 -72.4375 37.625 C-73.47982788 37.15453247 -73.47982788 37.15453247 -74.54321289 36.67456055 C-82.30211861 33.13768467 -89.88550975 29.24439415 -97.4921875 25.39453125 C-103.61780828 22.45889638 -109.23352476 20.51182624 -115.93725586 22.63964844 C-119.34392592 24.08169618 -122.67067891 25.63750964 -126 27.25 C-128.40490844 28.36357893 -130.81115483 29.4742731 -133.21875 30.58203125 C-134.95125 31.38761475 -134.95125 31.38761475 -136.71875 32.20947266 C-151.59507009 39.04057413 -161.2904199 41.70207608 -176.87475586 36.08691406 C-181.03224913 34.52226088 -184.99644025 32.7509794 -188.9375 30.6875 C-188.9375 30.0275 -188.9375 29.3675 -188.9375 28.6875 C-189.63230469 28.57535156 -190.32710938 28.46320313 -191.04296875 28.34765625 C-195.40610891 27.35255411 -199.3796669 25.49560022 -203.48828125 23.74609375 C-210.98794172 21.44438595 -216.4578167 22.83826698 -223.390625 25.86328125 C-224.172099 26.1891069 -224.953573 26.51493256 -225.75872803 26.85063171 C-228.24081793 27.88715624 -230.7145317 28.94191767 -233.1875 30 C-258.33076722 40.6875 -258.33076722 40.6875 -267.9375 40.6875 C-270.38739101 36.94514681 -270.16836143 33.24524581 -270.0625 28.9375 C-270.05347656 28.24011719 -270.04445313 27.54273438 -270.03515625 26.82421875 C-270.01169888 25.11183042 -269.97583104 23.39961996 -269.9375 21.6875 C-262.59166445 17.94807063 -255.4513355 14.39081592 -247.5 12.125 C-237.4550362 9.13388534 -227.89746056 4.77446482 -218.27490234 0.65551758 C-210.61503261 -2.51675979 -204.88551214 -1.31265315 -197.5 1.6875 C-196.76845703 1.97367188 -196.03691406 2.25984375 -195.28320312 2.5546875 C-193.49714046 3.25510423 -191.71670344 3.96983811 -189.9375 4.6875 C-189.9375 5.3475 -189.9375 6.0075 -189.9375 6.6875 C-188.803125 7.038125 -187.66875 7.38875 -186.5 7.75 C-183.20146344 8.8285691 -180.01597276 10.06249881 -176.8359375 11.4453125 C-176.1030249 11.76105225 -175.3701123 12.07679199 -174.61499023 12.40209961 C-173.14821291 13.03916856 -171.6864834 13.6880191 -170.23071289 14.34985352 C-162.97798129 17.48478611 -157.69747074 17.54419558 -150.36328125 14.7109375 C-148.31925279 13.84273645 -146.28164828 12.9592891 -144.25 12.0625 C-143.18289795 11.60681641 -142.1157959 11.15113281 -141.01635742 10.68164062 C-135.52017154 8.31949109 -130.11526884 5.83068392 -124.75 3.1875 C-118.1292584 0.10603782 -110.83676283 -2.38641841 -103.49609375 -0.77734375 C-100.89506268 0.23930291 -98.44247158 1.45226608 -95.9375 2.6875 C-93.24328987 3.82652737 -90.52631056 4.90864224 -87.8125 6 C-83.36377246 7.80797553 -78.95078251 9.65803588 -74.6015625 11.6953125 C-73.9017627 12.01846436 -73.20196289 12.34161621 -72.48095703 12.67456055 C-71.16520118 13.28653636 -69.85560394 13.91202548 -68.55419922 14.55395508 C-62.17299268 17.50350186 -57.22349132 17.82709843 -50.62109375 15.53735352 C-46.76631123 13.94222686 -42.97473102 12.2474829 -39.1875 10.5 C-36.61197648 9.33403608 -34.03263142 8.17665201 -31.453125 7.01953125 C-30.82498901 6.73618927 -30.19685303 6.45284729 -29.54968262 6.16091919 C-8.40347552 -3.31644625 -8.40347552 -3.31644625 0 0 Z "
        fill="#9AD21D" transform="translate(331.9375,246.3125)" />
    <path
        d="M0 0 C3.32894178 1.728489 6.29781973 3.59563947 8 7 C8.42118691 11.73835275 7.88116481 14.21882496 5 18 C2.444903 19.88827538 -0.28343643 21.40463714 -3.0625 22.9375 C-4.21540527 23.59588867 -4.21540527 23.59588867 -5.39160156 24.26757812 C-7.58865175 25.52224112 -9.79279636 26.76330978 -12 28 C-38.78542113 43.1143716 -56.26055521 62.56758023 -64.69165039 92.35620117 C-65.10145142 93.79636597 -65.10145142 93.79636597 -65.51953125 95.265625 C-65.75776611 96.12961914 -65.99600098 96.99361328 -66.24145508 97.88378906 C-67 100 -67 100 -69 102 C-75.6371897 103.18422887 -80.32755423 101.30033208 -86 98 C-86.8386954 81.57554837 -82.86396246 68.33626864 -75 54 C-74.34 54 -73.68 54 -73 54 C-72.77957031 53.29875 -72.55914062 52.5975 -72.33203125 51.875 C-70.68932341 48.32944877 -68.35471086 45.7911848 -65.6875 43 C-65.21376953 42.49210937 -64.74003906 41.98421875 -64.25195312 41.4609375 C-49.62804761 25.8567702 -32.94129044 12.96135222 -14 3 C-12.96230469 2.44570312 -11.92460937 1.89140625 -10.85546875 1.3203125 C-7.17127133 -0.38318781 -3.9445332 -0.83442048 0 0 Z "
        fill="#9AD21E" transform="translate(199,79)" />
</svg>